<?xml version="1.0" standalone="no"?>
<!DOCTYPE svg PUBLIC "-//W3C//DTD SVG 20010904//EN"
 "http://www.w3.org/TR/2001/REC-SVG-20010904/DTD/svg10.dtd">
<svg version="1.0" xmlns="http://www.w3.org/2000/svg"
 width="512.000000pt" height="512.000000pt" viewBox="0 0 512.000000 512.000000"
 preserveAspectRatio="xMidYMid meet">
<metadata>
Created by potrace 1.14, written by Peter Selinger 2001-2017
</metadata>
<g transform="translate(0.000000,512.000000) scale(0.100000,-0.100000)"
fill="#000000" stroke="none">
<path d="M0 2560 l0 -2560 2560 0 2560 0 0 2560 0 2560 -2560 0 -2560 0 0
-2560z m4200 1420 c0 -13 7 -20 20 -20 13 0 20 -7 20 -20 0 -13 7 -20 20 -20
19 0 20 -7 20 -120 0 -113 -1 -120 -20 -120 -19 0 -20 -7 -20 -140 0 -133 -1
-140 -20 -140 -19 0 -20 -7 -20 -120 0 -113 -1 -120 -20 -120 -18 0 -20 -7
-20 -60 l0 -60 240 0 c233 0 240 -1 240 -20 0 -17 7 -20 40 -20 33 0 40 -3 40
-20 0 -13 7 -20 20 -20 13 0 20 -7 20 -20 0 -13 7 -20 20 -20 13 0 20 -7 20
-20 0 -13 7 -20 20 -20 19 0 20 -7 20 -100 0 -93 -1 -100 -20 -100 -13 0 -20
-7 -20 -20 0 -19 -7 -20 -100 -20 -93 0 -100 1 -100 20 0 13 -7 20 -20 20 -13
0 -20 7 -20 20 0 17 -7 20 -40 20 -33 0 -40 3 -40 20 0 19 -7 20 -140 20 -133
0 -140 -1 -140 -20 0 -17 -7 -20 -40 -20 l-40 0 0 -180 c0 -173 -1 -180 -20
-180 -18 0 -20 -7 -20 -80 0 -73 -2 -80 -20 -80 -19 0 -20 -7 -20 -160 0 -153
-1 -160 -20 -160 -19 0 -20 -7 -20 -220 0 -213 -1 -220 -20 -220 -19 0 -20 -7
-20 -160 0 -153 1 -160 20 -160 19 0 20 -7 20 -100 0 -93 -1 -100 -20 -100
-13 0 -20 -7 -20 -20 0 -19 -7 -20 -100 -20 l-100 0 0 40 c0 33 -3 40 -20 40
-13 0 -20 7 -20 20 0 13 -7 20 -20 20 -19 0 -20 7 -20 260 0 253 1 260 20 260
19 0 20 7 20 220 0 213 1 220 20 220 19 0 20 7 20 160 0 153 1 160 20 160 18
0 20 7 20 80 0 73 2 80 20 80 19 0 20 7 20 120 l0 120 -120 0 c-113 0 -120 -1
-120 -20 0 -18 -7 -20 -60 -20 -53 0 -60 -2 -60 -20 0 -19 -7 -20 -120 -20
-113 0 -120 -1 -120 -20 0 -17 -7 -20 -40 -20 l-40 0 0 -80 c0 -73 -2 -80 -20
-80 -19 0 -20 -7 -20 -140 0 -133 -1 -140 -20 -140 -19 0 -20 -7 -20 -120 0
-113 -1 -120 -20 -120 -19 0 -20 -7 -20 -140 0 -133 -1 -140 -20 -140 -19 0
-20 -7 -20 -140 0 -133 -1 -140 -20 -140 -13 0 -20 -7 -20 -20 0 -19 -7 -20
-100 -20 l-100 0 0 40 c0 33 -3 40 -20 40 -19 0 -20 7 -20 140 0 133 1 140 20
140 19 0 20 7 20 160 0 153 1 160 20 160 19 0 20 7 20 120 0 113 1 120 20 120
19 0 20 7 20 140 l0 140 -140 0 c-133 0 -140 -1 -140 -20 0 -17 -7 -20 -40
-20 -33 0 -40 -3 -40 -20 0 -19 -7 -20 -120 -20 l-120 0 0 -520 c0 -513 0
-520 -20 -520 -13 0 -20 -7 -20 -20 0 -19 -7 -20 -100 -20 l-100 0 0 40 c0 33
-3 40 -20 40 -20 0 -20 7 -20 380 0 373 0 380 -20 380 -17 0 -20 7 -20 40 0
33 -3 40 -20 40 -13 0 -20 -7 -20 -20 0 -18 -7 -20 -80 -20 -73 0 -80 -2 -80
-20 0 -18 -7 -20 -60 -20 -53 0 -60 -2 -60 -20 0 -13 -7 -20 -20 -20 -13 0
-20 -7 -20 -20 0 -18 -7 -20 -80 -20 -73 0 -80 -2 -80 -20 0 -13 -7 -20 -20
-20 -19 0 -20 -7 -20 -180 0 -173 -1 -180 -20 -180 -19 0 -20 -7 -20 -240 0
-233 -1 -240 -20 -240 -13 0 -20 -7 -20 -20 0 -19 -7 -20 -100 -20 l-100 0 0
40 c0 33 -3 40 -20 40 -19 0 -20 7 -20 260 0 253 1 260 20 260 18 0 20 7 20
80 0 73 -2 80 -20 80 -13 0 -20 -7 -20 -20 0 -18 -7 -20 -60 -20 -53 0 -60 -2
-60 -20 0 -17 -7 -20 -40 -20 -33 0 -40 -3 -40 -20 0 -18 -7 -20 -60 -20 -53
0 -60 -2 -60 -20 0 -17 -7 -20 -40 -20 -33 0 -40 -3 -40 -20 0 -13 -7 -20 -20
-20 -13 0 -20 -7 -20 -20 0 -17 -7 -20 -40 -20 -33 0 -40 -3 -40 -20 0 -19 -7
-20 -100 -20 l-100 0 0 40 c0 33 -3 40 -20 40 -18 0 -20 7 -20 60 0 53 2 60
20 60 13 0 20 7 20 20 0 13 7 20 20 20 13 0 20 7 20 20 0 13 7 20 20 20 13 0
20 7 20 20 0 17 7 20 40 20 33 0 40 3 40 20 0 13 7 20 20 20 13 0 20 7 20 20
0 18 7 20 60 20 53 0 60 2 60 20 0 18 7 20 60 20 53 0 60 2 60 20 0 13 7 20
20 20 13 0 20 7 20 20 0 18 7 20 60 20 53 0 60 2 60 20 0 18 7 20 60 20 53 0
60 2 60 20 0 17 7 20 40 20 l40 0 0 140 c0 133 1 140 20 140 18 0 20 7 20 80
0 73 2 80 20 80 19 0 20 7 20 100 0 93 1 100 20 100 19 0 20 7 20 100 0 93 1
100 20 100 18 0 20 7 20 80 0 73 2 80 20 80 19 0 20 7 20 100 0 93 1 100 20
100 19 0 20 7 20 100 0 93 1 100 20 100 13 0 20 7 20 20 0 13 7 20 20 20 13 0
20 7 20 20 0 18 7 20 60 20 53 0 60 -2 60 -20 0 -13 7 -20 20 -20 13 0 20 -7
20 -20 0 -13 7 -20 20 -20 19 0 20 -7 20 -140 0 -133 -1 -140 -20 -140 -19 0
-20 -7 -20 -100 0 -93 -1 -100 -20 -100 -18 0 -20 -7 -20 -80 0 -73 -2 -80
-20 -80 -19 0 -20 -7 -20 -100 0 -93 -1 -100 -20 -100 -19 0 -20 -7 -20 -100
0 -93 -1 -100 -20 -100 -18 0 -20 -7 -20 -80 0 -73 -2 -80 -20 -80 -17 0 -20
-7 -20 -40 l0 -40 40 0 c33 0 40 3 40 20 0 17 7 20 40 20 33 0 40 3 40 20 0
17 7 20 40 20 33 0 40 3 40 20 0 18 7 20 80 20 73 0 80 2 80 20 0 13 7 20 20
20 13 0 20 7 20 20 0 18 7 20 60 20 53 0 60 2 60 20 0 13 7 20 20 20 18 0 20
7 20 80 0 73 2 80 20 80 19 0 20 7 20 100 0 93 1 100 20 100 19 0 20 7 20 100
0 93 1 100 20 100 17 0 20 7 20 40 0 33 3 40 20 40 17 0 20 7 20 40 0 33 3 40
20 40 18 0 20 7 20 80 0 73 2 80 20 80 13 0 20 7 20 20 0 13 7 20 20 20 13 0
20 7 20 20 0 18 7 20 60 20 53 0 60 -2 60 -20 0 -13 7 -20 20 -20 13 0 20 -7
20 -20 0 -13 7 -20 20 -20 19 0 20 -7 20 -100 0 -93 -1 -100 -20 -100 -18 0
-20 -7 -20 -60 0 -53 -2 -60 -20 -60 -17 0 -20 -7 -20 -40 0 -33 -3 -40 -20
-40 -19 0 -20 -7 -20 -100 0 -93 -1 -100 -20 -100 -19 0 -20 -7 -20 -100 l0
-100 40 0 c33 0 40 3 40 20 0 17 7 20 40 20 33 0 40 3 40 20 0 19 7 20 160 20
153 0 160 1 160 20 0 18 7 20 60 20 l60 0 0 120 c0 113 1 120 20 120 19 0 20
7 20 180 0 173 1 180 20 180 19 0 20 7 20 100 0 93 1 100 20 100 13 0 20 7 20
20 0 13 7 20 20 20 13 0 20 7 20 20 0 18 7 20 60 20 53 0 60 -2 60 -20 0 -13
7 -20 20 -20 13 0 20 -7 20 -20 0 -13 7 -20 20 -20 19 0 20 -7 20 -140 0 -133
-1 -140 -20 -140 -19 0 -20 -7 -20 -180 0 -173 -1 -180 -20 -180 -17 0 -20 -7
-20 -40 l0 -40 100 0 c93 0 100 1 100 20 0 18 7 20 60 20 53 0 60 2 60 20 0
19 7 20 160 20 153 0 160 1 160 20 0 13 7 20 20 20 19 0 20 7 20 120 0 113 1
120 20 120 19 0 20 7 20 120 0 113 1 120 20 120 19 0 20 7 20 140 0 133 1 140
20 140 18 0 20 7 20 80 0 73 2 80 20 80 13 0 20 7 20 20 0 13 7 20 20 20 13 0
20 7 20 20 0 18 7 20 60 20 53 0 60 -2 60 -20z"/>
</g>
</svg>
